<svg width="959" height="104" viewBox="0 0 959 104" fill="none" xmlns="http://www.w3.org/2000/svg">
<g clip-path="url(#clip0_3091_13675)">
<path d="M371.364 58.3233H420.36V43.5969H371.364V16.3177H422.623V1.59131H353.968V102.409H423.839V87.6825H371.364V58.3233Z" fill="white"/>
<path d="M598.089 1.59131H580.693V102.399H598.089V1.59131Z" fill="white"/>
<path d="M668.732 44.6992L655.111 41.7872C640.137 38.4696 634.066 35.6824 634.066 27.3208C634.066 19.448 643.373 13.9256 654.974 13.9256C666.3 13.9256 674.665 18.1688 677.637 28.1216H695.71C692.749 11.544 678.314 0 654.985 0C633.538 0 616.681 12.1992 616.681 28.9224C616.681 44.4392 628.144 52.6656 644.737 56.2432L658.496 59.1656C673.597 62.4832 681.021 65 681.021 74.5472C681.021 83.3352 671.99 90.064 655.661 90.064C643.119 90.064 633.4 83.9592 631.655 71.6248H613.582C616.533 91.7904 632.723 104 655.249 104C681.148 104 698.28 91.6656 698.28 72.696C698.28 56.9088 688.699 49.0776 668.732 44.6992Z" fill="white"/>
<path d="M732.629 1.59131H715.232V102.399H732.629V1.59131Z" fill="white"/>
<path d="M799.687 0C770.15 0 749.645 20.696 749.645 52C749.645 83.304 770.15 104 799.687 104C829.224 104 849.73 83.304 849.73 52C849.73 20.696 829.224 0 799.687 0ZM799.687 90.064C780.535 90.064 767.718 74.6824 767.718 51.9896C767.718 29.3072 780.535 13.9256 799.687 13.9256C818.839 13.9256 831.656 29.3072 831.656 51.9896C831.656 74.6824 818.839 90.064 799.687 90.064Z" fill="white"/>
<path d="M59.4229 101.494L34.0949 1.59131H0V102.409H17.3965V3.41131L42.4918 102.409H59.2008H59.6556H76.354L101.46 3.41131V102.409H118.856V1.59131H84.7509L59.4229 101.494Z" fill="white"/>
<path d="M186.866 0C157.329 0 136.824 20.696 136.824 52C136.824 83.304 157.329 104 186.866 104C216.403 104 236.909 83.304 236.909 52C236.909 20.696 216.403 0 186.866 0ZM186.866 90.064C167.714 90.064 154.897 74.6824 154.897 51.9896C154.897 29.3072 167.714 13.9256 186.866 13.9256C206.018 13.9256 218.836 29.3072 218.836 51.9896C218.836 74.6824 206.018 90.064 186.866 90.064Z" fill="white"/>
<path d="M515.718 101.015L482.871 1.59131H464.427L497.729 102.409H533.696L567.008 1.59131H548.565L515.718 101.015Z" fill="white"/>
<path d="M941.503 1.59131V101.255L901.792 1.59131H867.094V102.409H884.491V2.74571L924.201 102.409H958.899V1.59131H941.503Z" fill="white"/>
<path d="M332.923 32.6768C332.923 15.0384 318.773 1.60156 301.324 1.60156H254.887V102.409H272.284V63.752H294.45L317.472 102.398H337.565L312.639 61.7136C324.494 57.3456 332.923 46.2696 332.923 32.6768ZM272.284 16.3176H298.627C307.849 16.3176 315.547 23.2232 315.547 32.7392C315.547 42.2552 307.849 49.1608 298.627 49.1608H272.284V16.3176Z" fill="white"/>
</g>
<defs>
<clipPath id="clip0_3091_13675">
<rect width="958.899" height="104" fill="white"/>
</clipPath>
</defs>
</svg>
