<svg width="8" height="6" viewBox="0 0 8 6" fill="none" xmlns="http://www.w3.org/2000/svg">
<path d="M3.65627 5.28698L0.658774 1.86073C0.305024 1.45761 0.592524 0.824482 1.1294 0.824482L7.1244 0.824482C7.24455 0.824379 7.36219 0.858912 7.46322 0.923945C7.56425 0.988978 7.64439 1.08176 7.69405 1.19117C7.74371 1.30058 7.76078 1.42198 7.74322 1.54084C7.72566 1.65971 7.6742 1.77099 7.59502 1.86136L4.59752 5.28636C4.53886 5.35349 4.46651 5.40729 4.38534 5.44416C4.30417 5.48102 4.21605 5.50009 4.1269 5.50009C4.03775 5.50009 3.94963 5.48102 3.86846 5.44416C3.78728 5.40729 3.71494 5.35349 3.65627 5.28636V5.28698Z" fill="white"/>
</svg>
